<?xml version="1.0" encoding="UTF-8"?><svg xmlns="http://www.w3.org/2000/svg" viewBox="0 0 1460 847"><defs><style>.f{fill:#31a955;}</style></defs><g id="a"/><g id="b"/><g id="c"><path id="d" d="M174.8,635.74h-23.52v1.9h7.63v38.78c0,11.76-3.18,14.94-10.48,14.94-4.45,0-5.4-3.49-5.4-5.09,0-4.13-.32-6.99-4.13-6.99s-4.44,3.81-4.44,5.09c0,5.4,2.54,9.53,13.03,9.53,12.71,0,19.39-4.13,19.39-18.43v-37.83h7.63v-1.9h.32Zm3.18,49.26c-1.27,0-2.54,.33-3.18,1.27-.95,.95-1.27,1.91-1.27,3.18s.32,2.22,1.27,3.18c.95,.95,1.91,1.26,3.18,1.26s2.22-.32,3.18-1.26c.95-.95,1.27-1.92,1.27-3.18s-.32-2.23-1.27-3.18-1.91-1.27-3.18-1.27h0Zm52.12,0c-1.27,0-2.23,.33-3.18,1.27-.95,.95-1.27,1.91-1.27,3.18s.32,2.22,1.27,3.18c.95,.95,1.91,1.26,3.18,1.26s2.54-.32,3.18-1.26c.95-.96,1.27-1.92,1.27-3.18s-.32-2.23-1.27-3.18c-.95-.95-1.9-1.27-3.18-1.27h0Zm-16.53-49.26h-22.88v1.9h6.68v44.5c0,3.49-.32,4.44-.64,5.4-.32,1.28-1.27,1.91-2.86,2.55-.95,.32-2.54,.63-4.77,.63v1.91h24.79v-1.91c-2.23,0-3.81-.31-4.77-.63-1.59-.64-2.54-1.59-2.85-2.54-.42-1.12-.64-2.3-.64-3.49v-15.26h6.04c17.8,0,22.88-6.99,22.88-16.53s-2.86-16.53-20.98-16.53h0Zm-3.18,30.83h-4.77v-28.61h4.13c13.66,0,16.84,5.72,16.84,14.62s-5.4,13.99-16.21,13.99Zm97.58,20.66c-.42-1.23-.63-2.52-.64-3.81v-45.77h6.04v-1.9h-14.61c-.32,.64-17.48,43.22-17.48,43.22l-.32,.32q-.32,0-.32-.32s-18.43-42.91-18.43-43.23h-16.22v1.91h6.99v48.31c0,.96-.32,1.91-.95,2.86-.64,.95-1.59,1.59-2.54,1.9-.64,.33-1.9,.33-3.18,.33v1.9h15.9v-1.91c-1.27,0-1.91-.32-2.86-.32-1.27-.32-1.91-.95-2.54-1.91-.64-.64-.95-1.59-.95-2.86l-.32-4.13v-38.14h.95s20.66,48.31,20.98,48.95h1.59l19.7-48.62h.64v39.41c0,1.59-.32,2.86-.64,4.13-.32,1.27-1.27,1.91-2.54,2.54-1.33,.44-2.73,.66-4.13,.63v1.91h22.25v-1.91c-1.4,.02-2.8-.19-4.13-.63-.95-.64-1.9-1.59-2.22-2.86Zm30.19-36.23c-12.08,0-19.39,7.94-19.39,21.61,0,20.34,15.89,21.61,19.07,21.61,6.68,0,19.39-4.13,19.39-21.93,0-13.99-8.27-21.3-19.07-21.3Zm-.32,40.68c-8.9,0-10.49-4.44-10.49-18.75,0-11.12,.64-19.39,10.49-19.39,10.49,0,10.49,8.58,10.49,18.75,0,14.3-2.54,19.39-10.49,19.39Zm50.54-40.04c-7,0-9.53,4.13-11.45,8.58h-.64s-.95-6.36-1.27-7.95h-13.99v2.23h7.63v27.97c0,2.86-.31,4.77-.95,6.04-.64,1.28-2.55,2.23-5.41,2.23h-1.27v2.54h23.52v-2.54h-1.27c-3.18,0-4.44-.63-5.09-1.9-.63-1.27-.95-3.18-.95-6.04v-15.26c0-4.77,3.81-10.49,8.27-10.49,4.77,0,4.44,6.99,9.85,4.13,2.54-1.59,1.91-9.53-6.99-9.53Zm92.48,36.86c-2.54,0-3.18-1.26-3.49-3.81v-22.25c0-3.82-.64-6.04-2.86-8.27-2.23-2.22-6.36-3.18-12.4-3.18-5.72,0-9.85,.96-12.71,3.18-2.54,1.91-3.81,3.82-3.81,6.68,0,1.26,.32,2.22,.95,2.54,.64,.64,1.59,.95,2.54,.95,2.22,0,3.5-1.26,4.13-4.13,.33-2.23,.95-3.49,1.91-4.77,1.26-1.26,3.18-1.9,5.4-1.9,2.86,0,5.09,.63,6.04,2.22,.95,1.59,1.59,3.5,1.59,6.04v6.68c-7.32,.64-25.11,2.22-24.16,15.57,.32,5.09,4.77,9.85,10.81,9.85,6.68,0,10.8-3.81,13.66-6.68,.32,2.86,3.18,6.36,7.95,6.36,5.4,0,8.58-2.54,8.9-9.22h-1.27c0,2.54-1.59,4.13-3.18,4.13h0Zm-12.07-4.45v.32l-.32,.32c-3.81,3.5-6.99,4.77-9.22,4.77-5.72,0-6.68-4.77-6.68-6.99,0-7.63,10.49-11.44,16.21-11.44v13.03Zm59.75,4.13c-.64-1.27-1.59-3.18-1.59-6.04v-18.44c0-2.54-.32-5.09-1.27-6.67-.95-1.91-2.54-3.18-4.13-4.13-1.91-.95-3.81-1.27-6.04-1.27-8.27,0-11.45,5.09-13.35,7.94h-.64l-1.59-7.31h-12.71v2.23h6.36v27.97c0,2.23-.32,3.81-.64,4.77-.32,1.26-1.26,2.22-2.22,2.54-.64,.32-1.91,.64-3.5,.64v2.54h20.02v-2.54c-1.91-.32-3.5-.64-4.13-1.59-.64-.95-1.27-2.86-1.27-5.72v-10.81c0-4.44,0-8.9,1.59-11.44,1.59-2.86,4.76-4.45,7.94-4.45s4.77,.95,5.73,2.86c.95,1.59,1.26,6.36,1.26,9.53v13.35c0,2.22,.33,3.81,0,4.77-.31,1.26-.63,2.22-1.59,2.85-.63,.64-1.91,.64-3.18,.95v2.54h19.39v-2.54c-2.23-.95-3.82-1.59-4.45-2.54Zm-90.9-39.09c-1.27,.32-1.91,1.59-2.54,3.18-.32,1.59-.95,2.54-1.91,2.85-.95,.32-1.9,.32-2.86-.31-2.22-1.91-6.04-4.13-13.03-4.13-11.44,0-16.21,7.94-16.21,15.25,0,8.58,3.18,12.72,10.48,14.3,.32,0,.32,.64,0,.64-6.04,1.27-11.76,3.18-11.76,8.9,0,3.5,1.91,5.4,4.77,6.68,2.85,1.27,6.99,1.91,12.07,1.91,4.44,0,7.63,.32,9.53,.32,1.92,.25,3.76,.9,5.4,1.91,1.27,.95,1.91,2.54,1.91,4.44,0,2.86-1.59,4.77-4.45,6.68-2.85,1.59-6.36,2.23-11.12,2.23-3.81,0-7.31-.32-10.17-2.23-2.22-1.27-2.54-3.81-2.22-5.72,.32-1.91-.32-3.81-2.54-4.45-1.39-.31-2.81,.34-3.49,1.59-.64,.95-.96,2.22-.96,3.81,0,4.77,3.82,6.99,6.68,7.94,4.45,1.27,7.32,1.59,11.12,1.59,5.41,0,9.53-.95,12.71-2.23,3.18-1.59,5.09-3.49,6.36-5.72,1.27-2.22,1.91-4.45,1.91-6.68,0-2.86-.64-5.4-1.91-6.99-4.13-5.4-9.86-4.77-22.57-5.4-6.04,0-7.31-1.27-7.31-3.18,0-2.86,2.23-3.81,11.12-5.4,8.9-1.27,17.16-4.77,17.16-15.26,0-3.18-.63-5.72-1.59-7.63,1.91,.31,3.5,.31,5.09,0,1.91-.64,2.86-1.59,3.5-2.54,.64-1.27,.95-2.54,.32-3.5,.32-2.54-1.27-3.49-3.49-2.86h0Zm-20.02,29.88c-5.4,0-8.27-1.91-8.27-12.71,0-7.63,2.54-13.35,8.27-13.35,6.68,0,8.58,5.09,8.58,13.03,0,11.44-3.49,13.03-8.58,13.03Z"/></g><g id="e"><g><path d="M144.36,136.94h27.87v24.83h19.93v19.76h-19.93v40.71c0,8.61,2.7,10.3,11.99,10.3h7.94v20.1h-17.73c-22.46,0-30.06-4.39-30.06-25.5v-45.6h-14.36v-19.76h14.36v-24.83Z"/><path d="M289.78,224.09c-8.11,21.45-27.19,30.74-45.26,30.74-29.56,0-49.83-17.9-49.83-48.14s22.13-47.63,48.64-47.63c30.23,0,48.64,22.8,46.79,55.23h-67.39c.84,13.01,10.81,18.92,20.94,18.92,10.64,0,17.23-3.72,20.44-9.12h25.67Zm-66.71-26.69h39.35c-.51-11.49-8.45-17.06-19.09-17.06-9.96,0-18.75,5.07-20.27,17.06Z"/><path d="M385.71,195.04h-26.01c-2.53-10.64-9.12-14.36-17.4-14.36-9.96,0-19.76,6.76-19.76,26.18s9.8,26.35,19.76,26.35,16.55-5.4,18.58-14.02h26.01c-6.25,27.02-28.04,35.64-46.28,35.64-29.9,0-46.45-19.25-46.45-48.14s18.92-47.63,46.45-47.63c18.92,0,39.69,8.61,45.1,35.98Z"/><path d="M421.34,173.76c4.05-6.76,13.85-14.02,28.21-14.02,23.31,0,30.57,13.68,30.57,38.34v54.55h-27.87v-47.63c0-13-.34-23.65-13.85-23.65-11.99,0-17.06,7.77-17.06,24.66v46.62h-27.87v-122.45h27.87v43.58Z"/><path d="M547.51,188.46c-1.86-6.76-8.95-8.78-17.73-8.78-9.63,0-14.53,2.2-14.53,6.76,0,4.22,3.21,6.59,11.15,8.11l16.89,3.04c21.79,4.05,32.26,10.47,32.26,26.52,0,20.44-18.75,30.74-43.91,30.74s-41.38-10.3-44.59-31.75h25.84c2.53,8.78,9.46,11.49,19.09,11.49s16.89-2.7,16.89-8.11c0-4.05-3.55-6.59-14.19-8.45l-16.21-2.7c-17.57-2.87-29.56-11.65-29.56-27.87,0-18.07,19.09-28.04,41.55-28.04,20.78,0,39.52,8.28,43.07,29.05h-26.01Z"/><path d="M588.38,136.94h27.87v24.83h19.93v19.76h-19.93v40.71c0,8.61,2.7,10.3,11.99,10.3h7.94v20.1h-17.73c-22.46,0-30.06-4.39-30.06-25.5v-45.6h-14.36v-19.76h14.36v-24.83Z"/><path d="M699.68,192.34c0-10.81-5.24-14.52-15.37-14.52-8.95,0-15.03,4.56-16.21,13.34h-26.01c1.35-17.06,17.57-32.26,44.59-32.26s41.04,10.64,40.54,38.17l-.34,19.76v9.46c0,9.96,.68,20.77,2.03,26.35h-27.36l-.34-10.98c-6.76,9.63-17.57,13.17-30.57,13.17-17.23,0-31.42-10.13-31.42-26.69,0-22.29,25.17-29.56,60.47-32.26v-3.55Zm.68,19.93c-19.42,1.86-32.43,3.88-32.43,13.85,0,5.91,5.57,9.8,12.84,9.8,11.15,0,19.59-4.73,19.59-21.45v-2.2Z"/><path d="M794.09,188.46c-3.21-.51-5.07-.51-7.6-.51-13.51,0-20.44,4.9-20.44,19.09v45.6h-27.87v-90.87h26.86v17.23c4.22-10.81,11.82-17.4,24.83-17.9h2.03c.84,0,1.52,0,2.2,.17v27.19Z"/><path d="M854.05,188.46c-1.86-6.76-8.95-8.78-17.73-8.78-9.63,0-14.53,2.2-14.53,6.76,0,4.22,3.21,6.59,11.15,8.11l16.89,3.04c21.79,4.05,32.26,10.47,32.26,26.52,0,20.44-18.75,30.74-43.91,30.74s-41.38-10.3-44.59-31.75h25.84c2.53,8.78,9.46,11.49,19.09,11.49s16.89-2.7,16.89-8.11c0-4.05-3.55-6.59-14.19-8.45l-16.21-2.7c-17.57-2.87-29.56-11.65-29.56-27.87,0-18.07,19.09-28.04,41.55-28.04,20.78,0,39.52,8.28,43.07,29.05h-26.01Z"/><path class="f" d="M881.75,276.12v-23.48h75.16v23.48h-75.16Z"/><path d="M253.3,382.69c-4.56,28.38-27.36,47.8-58.27,47.8-38.17,0-61.31-24.32-61.31-63.51s23.81-63.17,62.16-63.17c30.57,0,52.53,19.93,56.58,47.8h-28.38c-3.21-16.72-15.54-23.98-29.22-23.98-17.06,0-30.57,14.36-30.57,39.35s13.34,39.69,30.91,39.69c12.67,0,26.01-5.4,29.73-23.98h28.38Z"/><path d="M287.75,349.42c4.05-6.76,13.85-14.02,28.21-14.02,23.31,0,30.57,13.68,30.57,38.34v54.55h-27.87v-47.63c0-13-.34-23.65-13.85-23.65-11.99,0-17.06,7.77-17.06,24.66v46.62h-27.87v-122.45h27.87v43.58Z"/><path d="M385.88,305.84v22.29h-27.87v-22.29h27.87Zm.17,31.58v90.87h-28.04v-90.87h28.04Z"/><path d="M485.36,370.7h-26.01c-2.53-10.64-9.12-14.36-17.4-14.36-9.96,0-19.76,6.76-19.76,26.18s9.8,26.35,19.76,26.35,16.55-5.4,18.58-14.02h26.01c-6.25,27.02-28.04,35.64-46.28,35.64-29.9,0-46.45-19.25-46.45-48.14s18.92-47.63,46.45-47.63c18.92,0,39.69,8.61,45.1,35.98Z"/><path d="M548.7,368c0-10.81-5.24-14.52-15.37-14.52-8.95,0-15.03,4.56-16.21,13.34h-26.01c1.35-17.06,17.57-32.26,44.59-32.26s41.04,10.64,40.54,38.17l-.34,19.76v9.46c0,9.96,.68,20.77,2.03,26.35h-27.36l-.34-10.98c-6.76,9.63-17.57,13.17-30.57,13.17-17.23,0-31.42-10.13-31.42-26.69,0-22.29,25.17-29.56,60.47-32.26v-3.55Zm.68,19.93c-19.42,1.86-32.43,3.88-32.43,13.85,0,5.91,5.57,9.8,12.84,9.8,11.15,0,19.59-4.73,19.59-21.45v-2.2Z"/><path d="M649.36,337.42h27.7v78.71c0,33.78-21.45,43.91-46.62,43.91-26.85,0-42.73-14.53-45.43-31.25h26.18c2.2,7.77,8.61,11.65,18.92,11.65,14.19,0,19.25-6.92,19.25-18.92v-10.81c-5.91,9.96-18.07,14.36-28.04,14.36-23.48,0-40.03-16.05-40.03-44.93s16.55-44.76,40.03-44.76c9.96,0,22.13,4.39,28.04,14.36v-12.33Zm-39.18,42.73c0,16.21,9.29,23.31,20.27,23.31s20.1-5.74,20.1-23.31-9.12-23.14-20.1-23.14-20.27,7.09-20.27,23.14Z"/><path d="M781.09,382.52c0,32.94-22.97,47.97-48.14,47.97s-48.14-15.03-48.14-47.97,22.97-47.8,48.14-47.8,48.14,14.86,48.14,47.8Zm-67.9,0c0,19.09,8.45,26.35,19.76,26.35s19.76-7.26,19.76-26.35-8.78-26.18-19.76-26.18-19.76,6.76-19.76,26.18Z"/></g><g><path d="M145.25,539.53c6.13,0,10.73,1.5,10.73,7.7s-4.6,7.76-10.73,7.76h-3.52v8.19h-5.58v-23.65h9.1Zm-3.52,4.7v6.07h3.69c2.61,0,4.67-.59,4.67-3.07s-2.05-3-4.67-3h-3.69Z"/><path d="M174.09,554.34c0,6.36-4.44,9.26-9.3,9.26s-9.3-2.9-9.3-9.26,4.44-9.23,9.3-9.23,9.3,2.87,9.3,9.23Zm-13.12,0c0,3.69,1.63,5.09,3.82,5.09s3.82-1.4,3.82-5.09-1.7-5.06-3.82-5.06-3.82,1.3-3.82,5.06Z"/><path d="M188.93,545.63l2.05,11.91,2.32-11.91h5.51l-4.05,17.55h-6.26l-2.35-12.95-2.35,12.95h-6.23l-4.04-17.55h5.51l2.32,11.91,2.02-11.91h5.55Z"/><path d="M216.63,557.67c-1.57,4.14-5.25,5.94-8.74,5.94-5.71,0-9.62-3.46-9.62-9.3s4.27-9.2,9.4-9.2c5.84,0,9.4,4.4,9.04,10.67h-13.02c.16,2.51,2.09,3.65,4.05,3.65,2.05,0,3.33-.72,3.95-1.76h4.96Zm-12.89-5.15h7.6c-.1-2.22-1.63-3.29-3.69-3.29-1.92,0-3.62,.98-3.92,3.29Z"/><path d="M229.02,550.79c-.62-.1-.98-.1-1.47-.1-2.61,0-3.95,.95-3.95,3.69v8.81h-5.38v-17.55h5.19v3.33c.82-2.09,2.28-3.36,4.79-3.46h.39c.16,0,.29,0,.42,.03v5.25Z"/><path d="M247.33,557.67c-1.57,4.14-5.25,5.94-8.74,5.94-5.71,0-9.62-3.46-9.62-9.3s4.27-9.2,9.4-9.2c5.84,0,9.4,4.4,9.04,10.67h-13.02c.16,2.51,2.09,3.65,4.05,3.65,2.05,0,3.33-.72,3.95-1.76h4.96Zm-12.89-5.15h7.6c-.1-2.22-1.63-3.29-3.69-3.29-1.92,0-3.62,.98-3.92,3.29Z"/><path d="M266.57,539.53v23.65h-5.38v-2.35c-1.14,1.92-3.49,2.77-5.38,2.77-4.53,0-7.73-3.46-7.73-9.2s3.2-9.17,7.73-9.17c1.89,0,4.24,.85,5.38,2.77v-8.48h5.38Zm-12.92,14.88c0,3.26,1.79,5.02,3.92,5.02s3.88-1.4,3.88-5.02-1.76-4.99-3.88-4.99-3.92,1.73-3.92,4.99Z"/><path d="M280.21,548.02c1.14-1.92,3.49-2.77,5.38-2.77,4.53,0,7.73,3.42,7.73,9.17s-3.2,9.2-7.73,9.2c-1.89,0-4.24-.85-5.38-2.77v2.35h-5.38v-23.65h5.38v8.48Zm-.26,6.39c0,3.62,1.76,5.02,3.88,5.02s3.92-1.76,3.92-5.02-1.79-4.99-3.92-4.99-3.88,1.37-3.88,4.99Z"/><path d="M294.33,568.89v-3.88h1.08c2.22,0,2.67-.16,3.2-1.47l.16-.46-6.56-17.45h5.91l3.23,10.99,3.46-10.99h5.77l-6.88,17.55c-1.76,4.47-3.03,5.71-7.63,5.71h-1.73Z"/></g></g></svg>